G75*
%MOIN*%
%OFA0B0*%
%FSLAX25Y25*%
%IPPOS*%
%LPD*%
%AMOC8*
5,1,8,0,0,1.08239X$1,22.5*
%
%ADD10C,0.01200*%
%ADD11C,0.00000*%
%ADD12C,0.06400*%
%ADD13C,0.03100*%
%ADD14R,0.07600X0.07600*%
%ADD15C,0.07600*%
%ADD16R,0.03150X0.03150*%
%ADD17R,0.03937X0.04331*%
%ADD18C,0.01600*%
%ADD19C,0.04000*%
D10*
X0001600Y0002667D02*
X0001600Y0155167D01*
X0056600Y0155167D01*
X0056600Y0100167D01*
X0074100Y0100167D01*
X0074100Y0057667D01*
X0119100Y0057667D01*
X0119100Y0107667D01*
X0126600Y0092667D02*
X0142141Y0104454D01*
X0147300Y0108367D01*
X0147300Y0123412D01*
X0158354Y0134467D01*
X0163400Y0134467D01*
X0171600Y0142667D01*
X0171600Y0147667D01*
X0176600Y0147667D02*
X0176600Y0140167D01*
X0166600Y0131417D01*
X0159100Y0131417D01*
X0151600Y0122667D01*
X0151600Y0102667D01*
X0126600Y0082667D01*
X0126600Y0042667D02*
X0151600Y0042667D01*
X0151600Y0032667D01*
X0156600Y0027667D01*
X0166600Y0027667D01*
X0171600Y0032667D01*
X0171600Y0042667D01*
X0196600Y0002667D02*
X0001600Y0002667D01*
X0119100Y0107667D02*
X0119824Y0107736D01*
X0120546Y0107823D01*
X0121266Y0107927D01*
X0121984Y0108048D01*
X0122698Y0108187D01*
X0123408Y0108343D01*
X0124115Y0108516D01*
X0124817Y0108706D01*
X0125515Y0108913D01*
X0126207Y0109137D01*
X0126893Y0109377D01*
X0127574Y0109634D01*
X0128248Y0109908D01*
X0128916Y0110197D01*
X0129576Y0110503D01*
X0130228Y0110824D01*
X0130873Y0111162D01*
X0131509Y0111514D01*
X0132137Y0111882D01*
X0132755Y0112265D01*
X0133364Y0112663D01*
X0133964Y0113075D01*
X0134553Y0113502D01*
X0135132Y0113943D01*
X0135699Y0114398D01*
X0136256Y0114866D01*
X0136801Y0115348D01*
X0137335Y0115842D01*
X0137856Y0116350D01*
X0138365Y0116869D01*
X0138861Y0117401D01*
X0139344Y0117945D01*
X0139814Y0118501D01*
X0140271Y0119067D01*
X0140713Y0119645D01*
X0141142Y0120233D01*
X0141556Y0120831D01*
X0141955Y0121439D01*
X0142340Y0122056D01*
X0142710Y0122683D01*
X0143064Y0123318D01*
X0143403Y0123961D01*
X0143727Y0124613D01*
X0144034Y0125272D01*
X0144326Y0125939D01*
X0144601Y0126612D01*
X0144860Y0127292D01*
X0145102Y0127978D01*
X0145328Y0128670D01*
X0145537Y0129366D01*
X0145729Y0130068D01*
X0145904Y0130774D01*
X0146062Y0131484D01*
X0146203Y0132198D01*
X0146327Y0132915D01*
X0146433Y0133635D01*
X0146521Y0134357D01*
X0146593Y0135081D01*
X0146646Y0135806D01*
X0146683Y0136533D01*
X0146701Y0137260D01*
X0146702Y0137987D01*
X0146686Y0138715D01*
X0146652Y0139441D01*
X0146600Y0140167D01*
X0146600Y0167667D01*
X0196600Y0167667D01*
X0196600Y0002667D01*
X0181600Y0122667D02*
X0181600Y0135167D01*
X0191400Y0144967D01*
X0191400Y0155367D01*
X0186600Y0160167D01*
X0169100Y0160167D01*
X0166600Y0157667D01*
X0166600Y0152667D01*
D11*
X0159631Y0154167D02*
X0159633Y0154255D01*
X0159639Y0154343D01*
X0159649Y0154431D01*
X0159663Y0154519D01*
X0159680Y0154605D01*
X0159702Y0154691D01*
X0159727Y0154775D01*
X0159757Y0154859D01*
X0159789Y0154941D01*
X0159826Y0155021D01*
X0159866Y0155100D01*
X0159910Y0155177D01*
X0159957Y0155252D01*
X0160007Y0155324D01*
X0160061Y0155395D01*
X0160117Y0155462D01*
X0160177Y0155528D01*
X0160239Y0155590D01*
X0160305Y0155650D01*
X0160372Y0155706D01*
X0160443Y0155760D01*
X0160515Y0155810D01*
X0160590Y0155857D01*
X0160667Y0155901D01*
X0160746Y0155941D01*
X0160826Y0155978D01*
X0160908Y0156010D01*
X0160992Y0156040D01*
X0161076Y0156065D01*
X0161162Y0156087D01*
X0161248Y0156104D01*
X0161336Y0156118D01*
X0161424Y0156128D01*
X0161512Y0156134D01*
X0161600Y0156136D01*
X0161688Y0156134D01*
X0161776Y0156128D01*
X0161864Y0156118D01*
X0161952Y0156104D01*
X0162038Y0156087D01*
X0162124Y0156065D01*
X0162208Y0156040D01*
X0162292Y0156010D01*
X0162374Y0155978D01*
X0162454Y0155941D01*
X0162533Y0155901D01*
X0162610Y0155857D01*
X0162685Y0155810D01*
X0162757Y0155760D01*
X0162828Y0155706D01*
X0162895Y0155650D01*
X0162961Y0155590D01*
X0163023Y0155528D01*
X0163083Y0155462D01*
X0163139Y0155395D01*
X0163193Y0155324D01*
X0163243Y0155252D01*
X0163290Y0155177D01*
X0163334Y0155100D01*
X0163374Y0155021D01*
X0163411Y0154941D01*
X0163443Y0154859D01*
X0163473Y0154775D01*
X0163498Y0154691D01*
X0163520Y0154605D01*
X0163537Y0154519D01*
X0163551Y0154431D01*
X0163561Y0154343D01*
X0163567Y0154255D01*
X0163569Y0154167D01*
X0163567Y0154079D01*
X0163561Y0153991D01*
X0163551Y0153903D01*
X0163537Y0153815D01*
X0163520Y0153729D01*
X0163498Y0153643D01*
X0163473Y0153559D01*
X0163443Y0153475D01*
X0163411Y0153393D01*
X0163374Y0153313D01*
X0163334Y0153234D01*
X0163290Y0153157D01*
X0163243Y0153082D01*
X0163193Y0153010D01*
X0163139Y0152939D01*
X0163083Y0152872D01*
X0163023Y0152806D01*
X0162961Y0152744D01*
X0162895Y0152684D01*
X0162828Y0152628D01*
X0162757Y0152574D01*
X0162685Y0152524D01*
X0162610Y0152477D01*
X0162533Y0152433D01*
X0162454Y0152393D01*
X0162374Y0152356D01*
X0162292Y0152324D01*
X0162208Y0152294D01*
X0162124Y0152269D01*
X0162038Y0152247D01*
X0161952Y0152230D01*
X0161864Y0152216D01*
X0161776Y0152206D01*
X0161688Y0152200D01*
X0161600Y0152198D01*
X0161512Y0152200D01*
X0161424Y0152206D01*
X0161336Y0152216D01*
X0161248Y0152230D01*
X0161162Y0152247D01*
X0161076Y0152269D01*
X0160992Y0152294D01*
X0160908Y0152324D01*
X0160826Y0152356D01*
X0160746Y0152393D01*
X0160667Y0152433D01*
X0160590Y0152477D01*
X0160515Y0152524D01*
X0160443Y0152574D01*
X0160372Y0152628D01*
X0160305Y0152684D01*
X0160239Y0152744D01*
X0160177Y0152806D01*
X0160117Y0152872D01*
X0160061Y0152939D01*
X0160007Y0153010D01*
X0159957Y0153082D01*
X0159910Y0153157D01*
X0159866Y0153234D01*
X0159826Y0153313D01*
X0159789Y0153393D01*
X0159757Y0153475D01*
X0159727Y0153559D01*
X0159702Y0153643D01*
X0159680Y0153729D01*
X0159663Y0153815D01*
X0159649Y0153903D01*
X0159639Y0153991D01*
X0159633Y0154079D01*
X0159631Y0154167D01*
X0159631Y0146167D02*
X0159633Y0146255D01*
X0159639Y0146343D01*
X0159649Y0146431D01*
X0159663Y0146519D01*
X0159680Y0146605D01*
X0159702Y0146691D01*
X0159727Y0146775D01*
X0159757Y0146859D01*
X0159789Y0146941D01*
X0159826Y0147021D01*
X0159866Y0147100D01*
X0159910Y0147177D01*
X0159957Y0147252D01*
X0160007Y0147324D01*
X0160061Y0147395D01*
X0160117Y0147462D01*
X0160177Y0147528D01*
X0160239Y0147590D01*
X0160305Y0147650D01*
X0160372Y0147706D01*
X0160443Y0147760D01*
X0160515Y0147810D01*
X0160590Y0147857D01*
X0160667Y0147901D01*
X0160746Y0147941D01*
X0160826Y0147978D01*
X0160908Y0148010D01*
X0160992Y0148040D01*
X0161076Y0148065D01*
X0161162Y0148087D01*
X0161248Y0148104D01*
X0161336Y0148118D01*
X0161424Y0148128D01*
X0161512Y0148134D01*
X0161600Y0148136D01*
X0161688Y0148134D01*
X0161776Y0148128D01*
X0161864Y0148118D01*
X0161952Y0148104D01*
X0162038Y0148087D01*
X0162124Y0148065D01*
X0162208Y0148040D01*
X0162292Y0148010D01*
X0162374Y0147978D01*
X0162454Y0147941D01*
X0162533Y0147901D01*
X0162610Y0147857D01*
X0162685Y0147810D01*
X0162757Y0147760D01*
X0162828Y0147706D01*
X0162895Y0147650D01*
X0162961Y0147590D01*
X0163023Y0147528D01*
X0163083Y0147462D01*
X0163139Y0147395D01*
X0163193Y0147324D01*
X0163243Y0147252D01*
X0163290Y0147177D01*
X0163334Y0147100D01*
X0163374Y0147021D01*
X0163411Y0146941D01*
X0163443Y0146859D01*
X0163473Y0146775D01*
X0163498Y0146691D01*
X0163520Y0146605D01*
X0163537Y0146519D01*
X0163551Y0146431D01*
X0163561Y0146343D01*
X0163567Y0146255D01*
X0163569Y0146167D01*
X0163567Y0146079D01*
X0163561Y0145991D01*
X0163551Y0145903D01*
X0163537Y0145815D01*
X0163520Y0145729D01*
X0163498Y0145643D01*
X0163473Y0145559D01*
X0163443Y0145475D01*
X0163411Y0145393D01*
X0163374Y0145313D01*
X0163334Y0145234D01*
X0163290Y0145157D01*
X0163243Y0145082D01*
X0163193Y0145010D01*
X0163139Y0144939D01*
X0163083Y0144872D01*
X0163023Y0144806D01*
X0162961Y0144744D01*
X0162895Y0144684D01*
X0162828Y0144628D01*
X0162757Y0144574D01*
X0162685Y0144524D01*
X0162610Y0144477D01*
X0162533Y0144433D01*
X0162454Y0144393D01*
X0162374Y0144356D01*
X0162292Y0144324D01*
X0162208Y0144294D01*
X0162124Y0144269D01*
X0162038Y0144247D01*
X0161952Y0144230D01*
X0161864Y0144216D01*
X0161776Y0144206D01*
X0161688Y0144200D01*
X0161600Y0144198D01*
X0161512Y0144200D01*
X0161424Y0144206D01*
X0161336Y0144216D01*
X0161248Y0144230D01*
X0161162Y0144247D01*
X0161076Y0144269D01*
X0160992Y0144294D01*
X0160908Y0144324D01*
X0160826Y0144356D01*
X0160746Y0144393D01*
X0160667Y0144433D01*
X0160590Y0144477D01*
X0160515Y0144524D01*
X0160443Y0144574D01*
X0160372Y0144628D01*
X0160305Y0144684D01*
X0160239Y0144744D01*
X0160177Y0144806D01*
X0160117Y0144872D01*
X0160061Y0144939D01*
X0160007Y0145010D01*
X0159957Y0145082D01*
X0159910Y0145157D01*
X0159866Y0145234D01*
X0159826Y0145313D01*
X0159789Y0145393D01*
X0159757Y0145475D01*
X0159727Y0145559D01*
X0159702Y0145643D01*
X0159680Y0145729D01*
X0159663Y0145815D01*
X0159649Y0145903D01*
X0159639Y0145991D01*
X0159633Y0146079D01*
X0159631Y0146167D01*
X0179631Y0150167D02*
X0179633Y0150255D01*
X0179639Y0150343D01*
X0179649Y0150431D01*
X0179663Y0150519D01*
X0179680Y0150605D01*
X0179702Y0150691D01*
X0179727Y0150775D01*
X0179757Y0150859D01*
X0179789Y0150941D01*
X0179826Y0151021D01*
X0179866Y0151100D01*
X0179910Y0151177D01*
X0179957Y0151252D01*
X0180007Y0151324D01*
X0180061Y0151395D01*
X0180117Y0151462D01*
X0180177Y0151528D01*
X0180239Y0151590D01*
X0180305Y0151650D01*
X0180372Y0151706D01*
X0180443Y0151760D01*
X0180515Y0151810D01*
X0180590Y0151857D01*
X0180667Y0151901D01*
X0180746Y0151941D01*
X0180826Y0151978D01*
X0180908Y0152010D01*
X0180992Y0152040D01*
X0181076Y0152065D01*
X0181162Y0152087D01*
X0181248Y0152104D01*
X0181336Y0152118D01*
X0181424Y0152128D01*
X0181512Y0152134D01*
X0181600Y0152136D01*
X0181688Y0152134D01*
X0181776Y0152128D01*
X0181864Y0152118D01*
X0181952Y0152104D01*
X0182038Y0152087D01*
X0182124Y0152065D01*
X0182208Y0152040D01*
X0182292Y0152010D01*
X0182374Y0151978D01*
X0182454Y0151941D01*
X0182533Y0151901D01*
X0182610Y0151857D01*
X0182685Y0151810D01*
X0182757Y0151760D01*
X0182828Y0151706D01*
X0182895Y0151650D01*
X0182961Y0151590D01*
X0183023Y0151528D01*
X0183083Y0151462D01*
X0183139Y0151395D01*
X0183193Y0151324D01*
X0183243Y0151252D01*
X0183290Y0151177D01*
X0183334Y0151100D01*
X0183374Y0151021D01*
X0183411Y0150941D01*
X0183443Y0150859D01*
X0183473Y0150775D01*
X0183498Y0150691D01*
X0183520Y0150605D01*
X0183537Y0150519D01*
X0183551Y0150431D01*
X0183561Y0150343D01*
X0183567Y0150255D01*
X0183569Y0150167D01*
X0183567Y0150079D01*
X0183561Y0149991D01*
X0183551Y0149903D01*
X0183537Y0149815D01*
X0183520Y0149729D01*
X0183498Y0149643D01*
X0183473Y0149559D01*
X0183443Y0149475D01*
X0183411Y0149393D01*
X0183374Y0149313D01*
X0183334Y0149234D01*
X0183290Y0149157D01*
X0183243Y0149082D01*
X0183193Y0149010D01*
X0183139Y0148939D01*
X0183083Y0148872D01*
X0183023Y0148806D01*
X0182961Y0148744D01*
X0182895Y0148684D01*
X0182828Y0148628D01*
X0182757Y0148574D01*
X0182685Y0148524D01*
X0182610Y0148477D01*
X0182533Y0148433D01*
X0182454Y0148393D01*
X0182374Y0148356D01*
X0182292Y0148324D01*
X0182208Y0148294D01*
X0182124Y0148269D01*
X0182038Y0148247D01*
X0181952Y0148230D01*
X0181864Y0148216D01*
X0181776Y0148206D01*
X0181688Y0148200D01*
X0181600Y0148198D01*
X0181512Y0148200D01*
X0181424Y0148206D01*
X0181336Y0148216D01*
X0181248Y0148230D01*
X0181162Y0148247D01*
X0181076Y0148269D01*
X0180992Y0148294D01*
X0180908Y0148324D01*
X0180826Y0148356D01*
X0180746Y0148393D01*
X0180667Y0148433D01*
X0180590Y0148477D01*
X0180515Y0148524D01*
X0180443Y0148574D01*
X0180372Y0148628D01*
X0180305Y0148684D01*
X0180239Y0148744D01*
X0180177Y0148806D01*
X0180117Y0148872D01*
X0180061Y0148939D01*
X0180007Y0149010D01*
X0179957Y0149082D01*
X0179910Y0149157D01*
X0179866Y0149234D01*
X0179826Y0149313D01*
X0179789Y0149393D01*
X0179757Y0149475D01*
X0179727Y0149559D01*
X0179702Y0149643D01*
X0179680Y0149729D01*
X0179663Y0149815D01*
X0179649Y0149903D01*
X0179639Y0149991D01*
X0179633Y0150079D01*
X0179631Y0150167D01*
X0180000Y0013667D02*
X0180002Y0013776D01*
X0180008Y0013885D01*
X0180018Y0013993D01*
X0180032Y0014101D01*
X0180049Y0014209D01*
X0180071Y0014316D01*
X0180096Y0014422D01*
X0180126Y0014526D01*
X0180159Y0014630D01*
X0180196Y0014733D01*
X0180236Y0014834D01*
X0180280Y0014933D01*
X0180328Y0015031D01*
X0180380Y0015128D01*
X0180434Y0015222D01*
X0180492Y0015314D01*
X0180554Y0015404D01*
X0180619Y0015491D01*
X0180686Y0015577D01*
X0180757Y0015660D01*
X0180831Y0015740D01*
X0180908Y0015817D01*
X0180987Y0015892D01*
X0181069Y0015963D01*
X0181154Y0016032D01*
X0181241Y0016097D01*
X0181330Y0016160D01*
X0181422Y0016218D01*
X0181516Y0016274D01*
X0181611Y0016326D01*
X0181709Y0016375D01*
X0181808Y0016420D01*
X0181909Y0016462D01*
X0182011Y0016499D01*
X0182114Y0016533D01*
X0182219Y0016564D01*
X0182325Y0016590D01*
X0182431Y0016613D01*
X0182539Y0016631D01*
X0182647Y0016646D01*
X0182755Y0016657D01*
X0182864Y0016664D01*
X0182973Y0016667D01*
X0183082Y0016666D01*
X0183191Y0016661D01*
X0183299Y0016652D01*
X0183407Y0016639D01*
X0183515Y0016622D01*
X0183622Y0016602D01*
X0183728Y0016577D01*
X0183833Y0016549D01*
X0183937Y0016517D01*
X0184040Y0016481D01*
X0184142Y0016441D01*
X0184242Y0016398D01*
X0184340Y0016351D01*
X0184437Y0016301D01*
X0184531Y0016247D01*
X0184624Y0016189D01*
X0184715Y0016129D01*
X0184803Y0016065D01*
X0184889Y0015998D01*
X0184972Y0015928D01*
X0185053Y0015855D01*
X0185131Y0015779D01*
X0185206Y0015700D01*
X0185279Y0015618D01*
X0185348Y0015534D01*
X0185414Y0015448D01*
X0185477Y0015359D01*
X0185537Y0015268D01*
X0185594Y0015175D01*
X0185647Y0015080D01*
X0185696Y0014983D01*
X0185742Y0014884D01*
X0185784Y0014784D01*
X0185823Y0014682D01*
X0185858Y0014578D01*
X0185889Y0014474D01*
X0185917Y0014369D01*
X0185940Y0014262D01*
X0185960Y0014155D01*
X0185976Y0014047D01*
X0185988Y0013939D01*
X0185996Y0013830D01*
X0186000Y0013721D01*
X0186000Y0013613D01*
X0185996Y0013504D01*
X0185988Y0013395D01*
X0185976Y0013287D01*
X0185960Y0013179D01*
X0185940Y0013072D01*
X0185917Y0012965D01*
X0185889Y0012860D01*
X0185858Y0012756D01*
X0185823Y0012652D01*
X0185784Y0012550D01*
X0185742Y0012450D01*
X0185696Y0012351D01*
X0185647Y0012254D01*
X0185594Y0012159D01*
X0185537Y0012066D01*
X0185477Y0011975D01*
X0185414Y0011886D01*
X0185348Y0011800D01*
X0185279Y0011716D01*
X0185206Y0011634D01*
X0185131Y0011555D01*
X0185053Y0011479D01*
X0184972Y0011406D01*
X0184889Y0011336D01*
X0184803Y0011269D01*
X0184715Y0011205D01*
X0184624Y0011145D01*
X0184531Y0011087D01*
X0184437Y0011033D01*
X0184340Y0010983D01*
X0184242Y0010936D01*
X0184142Y0010893D01*
X0184040Y0010853D01*
X0183937Y0010817D01*
X0183833Y0010785D01*
X0183728Y0010757D01*
X0183622Y0010732D01*
X0183515Y0010712D01*
X0183407Y0010695D01*
X0183299Y0010682D01*
X0183191Y0010673D01*
X0183082Y0010668D01*
X0182973Y0010667D01*
X0182864Y0010670D01*
X0182755Y0010677D01*
X0182647Y0010688D01*
X0182539Y0010703D01*
X0182431Y0010721D01*
X0182325Y0010744D01*
X0182219Y0010770D01*
X0182114Y0010801D01*
X0182011Y0010835D01*
X0181909Y0010872D01*
X0181808Y0010914D01*
X0181709Y0010959D01*
X0181611Y0011008D01*
X0181516Y0011060D01*
X0181422Y0011116D01*
X0181330Y0011174D01*
X0181241Y0011237D01*
X0181154Y0011302D01*
X0181069Y0011371D01*
X0180987Y0011442D01*
X0180908Y0011517D01*
X0180831Y0011594D01*
X0180757Y0011674D01*
X0180686Y0011757D01*
X0180619Y0011843D01*
X0180554Y0011930D01*
X0180492Y0012020D01*
X0180434Y0012112D01*
X0180380Y0012206D01*
X0180328Y0012303D01*
X0180280Y0012401D01*
X0180236Y0012500D01*
X0180196Y0012601D01*
X0180159Y0012704D01*
X0180126Y0012808D01*
X0180096Y0012912D01*
X0180071Y0013018D01*
X0180049Y0013125D01*
X0180032Y0013233D01*
X0180018Y0013341D01*
X0180008Y0013449D01*
X0180002Y0013558D01*
X0180000Y0013667D01*
X0010600Y0013667D02*
X0010602Y0013776D01*
X0010608Y0013885D01*
X0010618Y0013993D01*
X0010632Y0014101D01*
X0010649Y0014209D01*
X0010671Y0014316D01*
X0010696Y0014422D01*
X0010726Y0014526D01*
X0010759Y0014630D01*
X0010796Y0014733D01*
X0010836Y0014834D01*
X0010880Y0014933D01*
X0010928Y0015031D01*
X0010980Y0015128D01*
X0011034Y0015222D01*
X0011092Y0015314D01*
X0011154Y0015404D01*
X0011219Y0015491D01*
X0011286Y0015577D01*
X0011357Y0015660D01*
X0011431Y0015740D01*
X0011508Y0015817D01*
X0011587Y0015892D01*
X0011669Y0015963D01*
X0011754Y0016032D01*
X0011841Y0016097D01*
X0011930Y0016160D01*
X0012022Y0016218D01*
X0012116Y0016274D01*
X0012211Y0016326D01*
X0012309Y0016375D01*
X0012408Y0016420D01*
X0012509Y0016462D01*
X0012611Y0016499D01*
X0012714Y0016533D01*
X0012819Y0016564D01*
X0012925Y0016590D01*
X0013031Y0016613D01*
X0013139Y0016631D01*
X0013247Y0016646D01*
X0013355Y0016657D01*
X0013464Y0016664D01*
X0013573Y0016667D01*
X0013682Y0016666D01*
X0013791Y0016661D01*
X0013899Y0016652D01*
X0014007Y0016639D01*
X0014115Y0016622D01*
X0014222Y0016602D01*
X0014328Y0016577D01*
X0014433Y0016549D01*
X0014537Y0016517D01*
X0014640Y0016481D01*
X0014742Y0016441D01*
X0014842Y0016398D01*
X0014940Y0016351D01*
X0015037Y0016301D01*
X0015131Y0016247D01*
X0015224Y0016189D01*
X0015315Y0016129D01*
X0015403Y0016065D01*
X0015489Y0015998D01*
X0015572Y0015928D01*
X0015653Y0015855D01*
X0015731Y0015779D01*
X0015806Y0015700D01*
X0015879Y0015618D01*
X0015948Y0015534D01*
X0016014Y0015448D01*
X0016077Y0015359D01*
X0016137Y0015268D01*
X0016194Y0015175D01*
X0016247Y0015080D01*
X0016296Y0014983D01*
X0016342Y0014884D01*
X0016384Y0014784D01*
X0016423Y0014682D01*
X0016458Y0014578D01*
X0016489Y0014474D01*
X0016517Y0014369D01*
X0016540Y0014262D01*
X0016560Y0014155D01*
X0016576Y0014047D01*
X0016588Y0013939D01*
X0016596Y0013830D01*
X0016600Y0013721D01*
X0016600Y0013613D01*
X0016596Y0013504D01*
X0016588Y0013395D01*
X0016576Y0013287D01*
X0016560Y0013179D01*
X0016540Y0013072D01*
X0016517Y0012965D01*
X0016489Y0012860D01*
X0016458Y0012756D01*
X0016423Y0012652D01*
X0016384Y0012550D01*
X0016342Y0012450D01*
X0016296Y0012351D01*
X0016247Y0012254D01*
X0016194Y0012159D01*
X0016137Y0012066D01*
X0016077Y0011975D01*
X0016014Y0011886D01*
X0015948Y0011800D01*
X0015879Y0011716D01*
X0015806Y0011634D01*
X0015731Y0011555D01*
X0015653Y0011479D01*
X0015572Y0011406D01*
X0015489Y0011336D01*
X0015403Y0011269D01*
X0015315Y0011205D01*
X0015224Y0011145D01*
X0015131Y0011087D01*
X0015037Y0011033D01*
X0014940Y0010983D01*
X0014842Y0010936D01*
X0014742Y0010893D01*
X0014640Y0010853D01*
X0014537Y0010817D01*
X0014433Y0010785D01*
X0014328Y0010757D01*
X0014222Y0010732D01*
X0014115Y0010712D01*
X0014007Y0010695D01*
X0013899Y0010682D01*
X0013791Y0010673D01*
X0013682Y0010668D01*
X0013573Y0010667D01*
X0013464Y0010670D01*
X0013355Y0010677D01*
X0013247Y0010688D01*
X0013139Y0010703D01*
X0013031Y0010721D01*
X0012925Y0010744D01*
X0012819Y0010770D01*
X0012714Y0010801D01*
X0012611Y0010835D01*
X0012509Y0010872D01*
X0012408Y0010914D01*
X0012309Y0010959D01*
X0012211Y0011008D01*
X0012116Y0011060D01*
X0012022Y0011116D01*
X0011930Y0011174D01*
X0011841Y0011237D01*
X0011754Y0011302D01*
X0011669Y0011371D01*
X0011587Y0011442D01*
X0011508Y0011517D01*
X0011431Y0011594D01*
X0011357Y0011674D01*
X0011286Y0011757D01*
X0011219Y0011843D01*
X0011154Y0011930D01*
X0011092Y0012020D01*
X0011034Y0012112D01*
X0010980Y0012206D01*
X0010928Y0012303D01*
X0010880Y0012401D01*
X0010836Y0012500D01*
X0010796Y0012601D01*
X0010759Y0012704D01*
X0010726Y0012808D01*
X0010696Y0012912D01*
X0010671Y0013018D01*
X0010649Y0013125D01*
X0010632Y0013233D01*
X0010618Y0013341D01*
X0010608Y0013449D01*
X0010602Y0013558D01*
X0010600Y0013667D01*
X0010600Y0143067D02*
X0010602Y0143176D01*
X0010608Y0143285D01*
X0010618Y0143393D01*
X0010632Y0143501D01*
X0010649Y0143609D01*
X0010671Y0143716D01*
X0010696Y0143822D01*
X0010726Y0143926D01*
X0010759Y0144030D01*
X0010796Y0144133D01*
X0010836Y0144234D01*
X0010880Y0144333D01*
X0010928Y0144431D01*
X0010980Y0144528D01*
X0011034Y0144622D01*
X0011092Y0144714D01*
X0011154Y0144804D01*
X0011219Y0144891D01*
X0011286Y0144977D01*
X0011357Y0145060D01*
X0011431Y0145140D01*
X0011508Y0145217D01*
X0011587Y0145292D01*
X0011669Y0145363D01*
X0011754Y0145432D01*
X0011841Y0145497D01*
X0011930Y0145560D01*
X0012022Y0145618D01*
X0012116Y0145674D01*
X0012211Y0145726D01*
X0012309Y0145775D01*
X0012408Y0145820D01*
X0012509Y0145862D01*
X0012611Y0145899D01*
X0012714Y0145933D01*
X0012819Y0145964D01*
X0012925Y0145990D01*
X0013031Y0146013D01*
X0013139Y0146031D01*
X0013247Y0146046D01*
X0013355Y0146057D01*
X0013464Y0146064D01*
X0013573Y0146067D01*
X0013682Y0146066D01*
X0013791Y0146061D01*
X0013899Y0146052D01*
X0014007Y0146039D01*
X0014115Y0146022D01*
X0014222Y0146002D01*
X0014328Y0145977D01*
X0014433Y0145949D01*
X0014537Y0145917D01*
X0014640Y0145881D01*
X0014742Y0145841D01*
X0014842Y0145798D01*
X0014940Y0145751D01*
X0015037Y0145701D01*
X0015131Y0145647D01*
X0015224Y0145589D01*
X0015315Y0145529D01*
X0015403Y0145465D01*
X0015489Y0145398D01*
X0015572Y0145328D01*
X0015653Y0145255D01*
X0015731Y0145179D01*
X0015806Y0145100D01*
X0015879Y0145018D01*
X0015948Y0144934D01*
X0016014Y0144848D01*
X0016077Y0144759D01*
X0016137Y0144668D01*
X0016194Y0144575D01*
X0016247Y0144480D01*
X0016296Y0144383D01*
X0016342Y0144284D01*
X0016384Y0144184D01*
X0016423Y0144082D01*
X0016458Y0143978D01*
X0016489Y0143874D01*
X0016517Y0143769D01*
X0016540Y0143662D01*
X0016560Y0143555D01*
X0016576Y0143447D01*
X0016588Y0143339D01*
X0016596Y0143230D01*
X0016600Y0143121D01*
X0016600Y0143013D01*
X0016596Y0142904D01*
X0016588Y0142795D01*
X0016576Y0142687D01*
X0016560Y0142579D01*
X0016540Y0142472D01*
X0016517Y0142365D01*
X0016489Y0142260D01*
X0016458Y0142156D01*
X0016423Y0142052D01*
X0016384Y0141950D01*
X0016342Y0141850D01*
X0016296Y0141751D01*
X0016247Y0141654D01*
X0016194Y0141559D01*
X0016137Y0141466D01*
X0016077Y0141375D01*
X0016014Y0141286D01*
X0015948Y0141200D01*
X0015879Y0141116D01*
X0015806Y0141034D01*
X0015731Y0140955D01*
X0015653Y0140879D01*
X0015572Y0140806D01*
X0015489Y0140736D01*
X0015403Y0140669D01*
X0015315Y0140605D01*
X0015224Y0140545D01*
X0015131Y0140487D01*
X0015037Y0140433D01*
X0014940Y0140383D01*
X0014842Y0140336D01*
X0014742Y0140293D01*
X0014640Y0140253D01*
X0014537Y0140217D01*
X0014433Y0140185D01*
X0014328Y0140157D01*
X0014222Y0140132D01*
X0014115Y0140112D01*
X0014007Y0140095D01*
X0013899Y0140082D01*
X0013791Y0140073D01*
X0013682Y0140068D01*
X0013573Y0140067D01*
X0013464Y0140070D01*
X0013355Y0140077D01*
X0013247Y0140088D01*
X0013139Y0140103D01*
X0013031Y0140121D01*
X0012925Y0140144D01*
X0012819Y0140170D01*
X0012714Y0140201D01*
X0012611Y0140235D01*
X0012509Y0140272D01*
X0012408Y0140314D01*
X0012309Y0140359D01*
X0012211Y0140408D01*
X0012116Y0140460D01*
X0012022Y0140516D01*
X0011930Y0140574D01*
X0011841Y0140637D01*
X0011754Y0140702D01*
X0011669Y0140771D01*
X0011587Y0140842D01*
X0011508Y0140917D01*
X0011431Y0140994D01*
X0011357Y0141074D01*
X0011286Y0141157D01*
X0011219Y0141243D01*
X0011154Y0141330D01*
X0011092Y0141420D01*
X0011034Y0141512D01*
X0010980Y0141606D01*
X0010928Y0141703D01*
X0010880Y0141801D01*
X0010836Y0141900D01*
X0010796Y0142001D01*
X0010759Y0142104D01*
X0010726Y0142208D01*
X0010696Y0142312D01*
X0010671Y0142418D01*
X0010649Y0142525D01*
X0010632Y0142633D01*
X0010618Y0142741D01*
X0010608Y0142849D01*
X0010602Y0142958D01*
X0010600Y0143067D01*
D12*
X0016600Y0125867D02*
X0016600Y0119467D01*
X0026600Y0119467D02*
X0026600Y0125867D01*
X0036600Y0125867D02*
X0036600Y0119467D01*
X0036600Y0105867D02*
X0036600Y0099467D01*
X0026600Y0099467D02*
X0026600Y0105867D01*
X0016600Y0105867D02*
X0016600Y0099467D01*
X0016600Y0085867D02*
X0016600Y0079467D01*
X0026600Y0079467D02*
X0026600Y0085867D01*
X0036600Y0085867D02*
X0036600Y0079467D01*
X0036600Y0065867D02*
X0036600Y0059467D01*
X0026600Y0059467D02*
X0026600Y0065867D01*
X0016600Y0065867D02*
X0016600Y0059467D01*
X0016600Y0045867D02*
X0016600Y0039467D01*
X0026600Y0039467D02*
X0026600Y0045867D01*
X0036600Y0045867D02*
X0036600Y0039467D01*
X0076600Y0030867D02*
X0076600Y0024467D01*
X0086600Y0024467D02*
X0086600Y0030867D01*
X0096600Y0030867D02*
X0096600Y0024467D01*
X0106600Y0024467D02*
X0106600Y0030867D01*
X0116600Y0030867D02*
X0116600Y0024467D01*
X0161600Y0039467D02*
X0161600Y0045867D01*
X0171600Y0045867D02*
X0171600Y0039467D01*
X0181600Y0039467D02*
X0181600Y0045867D01*
X0181600Y0059467D02*
X0181600Y0065867D01*
X0171600Y0065867D02*
X0171600Y0059467D01*
X0161600Y0059467D02*
X0161600Y0065867D01*
X0161600Y0079467D02*
X0161600Y0085867D01*
X0171600Y0085867D02*
X0171600Y0079467D01*
X0181600Y0079467D02*
X0181600Y0085867D01*
X0181600Y0099467D02*
X0181600Y0105867D01*
X0171600Y0105867D02*
X0171600Y0099467D01*
X0161600Y0099467D02*
X0161600Y0105867D01*
X0161600Y0119467D02*
X0161600Y0125867D01*
X0171600Y0125867D02*
X0171600Y0119467D01*
X0181600Y0119467D02*
X0181600Y0125867D01*
D13*
X0176600Y0147667D03*
X0176600Y0152667D03*
X0171600Y0152667D03*
X0166600Y0152667D03*
X0166600Y0147667D03*
X0171600Y0147667D03*
D14*
X0126600Y0052667D03*
X0066600Y0042667D03*
D15*
X0066600Y0052667D03*
X0066600Y0062667D03*
X0066600Y0072667D03*
X0066600Y0082667D03*
X0066600Y0092667D03*
X0126600Y0092667D03*
X0126600Y0082667D03*
X0126600Y0072667D03*
X0126600Y0062667D03*
X0126600Y0042667D03*
D16*
X0117653Y0010167D03*
X0111747Y0010167D03*
D17*
X0127004Y0010167D03*
X0133696Y0010167D03*
D18*
X0134100Y0010570D01*
X0134100Y0025167D01*
X0131600Y0027667D01*
X0116600Y0027667D01*
X0111747Y0038464D02*
X0126600Y0052667D01*
X0126200Y0052267D01*
X0096200Y0052267D01*
X0086600Y0042667D01*
X0066600Y0042667D01*
X0111747Y0038464D02*
X0111747Y0010167D01*
X0117653Y0010167D02*
X0127004Y0010167D01*
X0171600Y0122667D02*
X0171600Y0130595D01*
X0188369Y0147363D01*
X0188369Y0154648D01*
X0185350Y0157667D01*
X0177850Y0157667D01*
X0176600Y0156417D01*
X0176600Y0152667D01*
D19*
X0181600Y0052667D02*
X0126600Y0052667D01*
X0181600Y0052667D02*
X0181600Y0042667D01*
X0066600Y0042667D02*
X0056600Y0042667D01*
X0041600Y0027667D01*
X0021600Y0027667D01*
X0016600Y0032667D01*
X0016600Y0042667D01*
M02*
