G75*
%MOIN*%
%OFA0B0*%
%FSLAX25Y25*%
%IPPOS*%
%LPD*%
%AMOC8*
5,1,8,0,0,1.08239X$1,22.5*
%
%ADD10C,0.06400*%
%ADD11R,0.07600X0.07600*%
%ADD12C,0.07600*%
%ADD13C,0.04000*%
%ADD14C,0.01200*%
D10*
X0016600Y0039467D02*
X0016600Y0045867D01*
X0026600Y0045867D02*
X0026600Y0039467D01*
X0036600Y0039467D02*
X0036600Y0045867D01*
X0036600Y0059467D02*
X0036600Y0065867D01*
X0026600Y0065867D02*
X0026600Y0059467D01*
X0016600Y0059467D02*
X0016600Y0065867D01*
X0016600Y0079467D02*
X0016600Y0085867D01*
X0026600Y0085867D02*
X0026600Y0079467D01*
X0036600Y0079467D02*
X0036600Y0085867D01*
X0036600Y0099467D02*
X0036600Y0105867D01*
X0026600Y0105867D02*
X0026600Y0099467D01*
X0016600Y0099467D02*
X0016600Y0105867D01*
X0016600Y0119467D02*
X0016600Y0125867D01*
X0026600Y0125867D02*
X0026600Y0119467D01*
X0036600Y0119467D02*
X0036600Y0125867D01*
X0076600Y0030867D02*
X0076600Y0024467D01*
X0086600Y0024467D02*
X0086600Y0030867D01*
X0096600Y0030867D02*
X0096600Y0024467D01*
X0106600Y0024467D02*
X0106600Y0030867D01*
X0116600Y0030867D02*
X0116600Y0024467D01*
X0161600Y0039467D02*
X0161600Y0045867D01*
X0171600Y0045867D02*
X0171600Y0039467D01*
X0181600Y0039467D02*
X0181600Y0045867D01*
X0181600Y0059467D02*
X0181600Y0065867D01*
X0171600Y0065867D02*
X0171600Y0059467D01*
X0161600Y0059467D02*
X0161600Y0065867D01*
X0161600Y0079467D02*
X0161600Y0085867D01*
X0171600Y0085867D02*
X0171600Y0079467D01*
X0181600Y0079467D02*
X0181600Y0085867D01*
X0181600Y0099467D02*
X0181600Y0105867D01*
X0171600Y0105867D02*
X0171600Y0099467D01*
X0161600Y0099467D02*
X0161600Y0105867D01*
X0161600Y0119467D02*
X0161600Y0125867D01*
X0171600Y0125867D02*
X0171600Y0119467D01*
X0181600Y0119467D02*
X0181600Y0125867D01*
D11*
X0126600Y0052667D03*
X0066600Y0042667D03*
D12*
X0066600Y0052667D03*
X0066600Y0062667D03*
X0066600Y0072667D03*
X0066600Y0082667D03*
X0066600Y0092667D03*
X0126600Y0092667D03*
X0126600Y0082667D03*
X0126600Y0072667D03*
X0126600Y0062667D03*
X0126600Y0042667D03*
D13*
X0046600Y0007667D02*
X0026600Y0030167D01*
X0026600Y0042667D01*
X0026600Y0062667D01*
X0026600Y0082667D01*
X0026600Y0102667D01*
X0026600Y0122667D01*
X0016600Y0122667D02*
X0016600Y0102667D01*
X0016600Y0082667D01*
X0016600Y0062667D01*
X0016600Y0042667D01*
X0046600Y0007667D02*
X0154100Y0007667D01*
X0171600Y0027667D01*
X0171600Y0042667D01*
X0171600Y0062667D01*
X0171600Y0082667D01*
X0171600Y0102667D01*
X0171600Y0122667D01*
X0181600Y0122667D02*
X0181600Y0102667D01*
X0181600Y0082667D01*
X0181600Y0062667D01*
X0181600Y0042667D01*
X0181600Y0080167D02*
X0181600Y0082667D01*
X0016600Y0082667D02*
X0016600Y0080167D01*
D14*
X0036600Y0082667D02*
X0046600Y0082667D01*
X0066600Y0062667D01*
X0066600Y0072667D02*
X0036600Y0102667D01*
X0051600Y0097667D02*
X0051600Y0107667D01*
X0036600Y0122667D01*
X0051600Y0097667D02*
X0066600Y0082667D01*
X0066600Y0052667D02*
X0036600Y0062667D01*
X0036600Y0042667D02*
X0051600Y0027667D01*
X0076600Y0027667D01*
X0086600Y0027667D02*
X0086600Y0020167D01*
X0091600Y0012667D01*
X0146600Y0012667D01*
X0151600Y0020167D01*
X0151600Y0042667D01*
X0161600Y0042667D01*
X0146600Y0062667D02*
X0141600Y0057667D01*
X0141600Y0020167D01*
X0136600Y0016417D01*
X0099100Y0016417D01*
X0096600Y0020167D01*
X0096600Y0027667D01*
X0106600Y0027667D02*
X0106600Y0018917D01*
X0134100Y0018917D01*
X0136600Y0022667D01*
X0136600Y0062667D01*
X0146600Y0072667D01*
X0151600Y0072667D01*
X0161600Y0082667D01*
X0156600Y0092667D02*
X0126600Y0062667D01*
X0126600Y0072667D02*
X0154100Y0100167D01*
X0154100Y0115167D01*
X0161600Y0122667D01*
X0161600Y0102667D02*
X0156600Y0097667D01*
X0156600Y0092667D01*
X0161600Y0062667D02*
X0146600Y0062667D01*
M02*
