%
M48
M72
T01C0.03937
T02C0.04000
T03C0.06000
%
T01
X66600Y42667
X66600Y52667
X66600Y62667
X66600Y72667
X66600Y82667
X66600Y92667
X126600Y92667
X126600Y82667
X126600Y72667
X126600Y62667
X126600Y52667
X126600Y42667
X161600Y146167
X161600Y154167
X181600Y150167
T02
X181600Y122667
X171600Y122667
X161600Y122667
X161600Y102667
X171600Y102667
X181600Y102667
X181600Y82667
X171600Y82667
X161600Y82667
X161600Y62667
X171600Y62667
X181600Y62667
X181600Y42667
X171600Y42667
X161600Y42667
X116600Y27667
X106600Y27667
X96600Y27667
X86600Y27667
X76600Y27667
X36600Y42667
X26600Y42667
X16600Y42667
X16600Y62667
X26600Y62667
X36600Y62667
X36600Y82667
X26600Y82667
X16600Y82667
X16600Y102667
X26600Y102667
X36600Y102667
X36600Y122667
X26600Y122667
X16600Y122667
T03
X13600Y13667
X13600Y143067
X183000Y13667
M30
