G75*
%MOIN*%
%OFA0B0*%
%FSLAX25Y25*%
%IPPOS*%
%LPD*%
%AMOC8*
5,1,8,0,0,1.08239X$1,22.5*
%
%ADD10C,0.00400*%
%ADD11C,0.00600*%
%ADD12C,0.00500*%
%ADD13R,0.00984X0.00886*%
D10*
X0113913Y0008789D02*
X0115487Y0008789D01*
X0115487Y0011545D02*
X0113913Y0011545D01*
X0157608Y0129732D02*
X0158375Y0129732D01*
X0159142Y0130499D01*
X0159142Y0134336D01*
X0156841Y0134336D01*
X0156073Y0133569D01*
X0156073Y0132034D01*
X0156841Y0131267D01*
X0159142Y0131267D01*
X0154539Y0131267D02*
X0153004Y0131267D01*
X0153771Y0131267D02*
X0153771Y0134336D01*
X0153004Y0134336D01*
X0151469Y0134336D02*
X0149167Y0134336D01*
X0148400Y0133569D01*
X0149167Y0132801D01*
X0150702Y0132801D01*
X0151469Y0132034D01*
X0150702Y0131267D01*
X0148400Y0131267D01*
X0153771Y0135871D02*
X0153771Y0136638D01*
X0165281Y0134336D02*
X0166816Y0131267D01*
X0168350Y0134336D01*
X0169885Y0133569D02*
X0169885Y0132034D01*
X0170652Y0131267D01*
X0172954Y0131267D01*
X0174489Y0132034D02*
X0175256Y0131267D01*
X0177558Y0131267D01*
X0174489Y0132034D02*
X0174489Y0133569D01*
X0175256Y0134336D01*
X0177558Y0134336D01*
X0172954Y0134336D02*
X0170652Y0134336D01*
X0169885Y0133569D01*
X0183697Y0133569D02*
X0183697Y0132034D01*
X0184464Y0131267D01*
X0186766Y0131267D01*
X0186766Y0130499D02*
X0186766Y0134336D01*
X0184464Y0134336D01*
X0183697Y0133569D01*
X0185231Y0129732D02*
X0185999Y0129732D01*
X0186766Y0130499D01*
X0188301Y0131267D02*
X0188301Y0134336D01*
X0190603Y0134336D01*
X0191370Y0133569D01*
X0191370Y0131267D01*
X0192905Y0132034D02*
X0192905Y0133569D01*
X0193672Y0134336D01*
X0195974Y0134336D01*
X0195974Y0135871D02*
X0195974Y0131267D01*
X0193672Y0131267D01*
X0192905Y0132034D01*
X0050774Y0130667D02*
X0048472Y0130667D01*
X0047705Y0131434D01*
X0047705Y0132969D01*
X0048472Y0133736D01*
X0050774Y0133736D01*
X0050774Y0129899D01*
X0050007Y0129132D01*
X0049239Y0129132D01*
X0046170Y0130667D02*
X0044635Y0130667D01*
X0045403Y0130667D02*
X0045403Y0133736D01*
X0044635Y0133736D01*
X0043101Y0133736D02*
X0040799Y0133736D01*
X0040031Y0132969D01*
X0040799Y0132201D01*
X0042333Y0132201D01*
X0043101Y0131434D01*
X0042333Y0130667D01*
X0040031Y0130667D01*
X0045403Y0135271D02*
X0045403Y0136038D01*
X0033893Y0133736D02*
X0031591Y0133736D01*
X0030824Y0132969D01*
X0030824Y0131434D01*
X0031591Y0130667D01*
X0033893Y0130667D01*
X0029289Y0130667D02*
X0026987Y0130667D01*
X0026220Y0131434D01*
X0026220Y0132969D01*
X0026987Y0133736D01*
X0029289Y0133736D01*
X0024685Y0133736D02*
X0023150Y0130667D01*
X0021616Y0133736D01*
X0015477Y0133736D02*
X0013175Y0133736D01*
X0012408Y0132969D01*
X0012408Y0131434D01*
X0013175Y0130667D01*
X0015477Y0130667D01*
X0015477Y0135271D01*
X0010873Y0132969D02*
X0010873Y0130667D01*
X0010873Y0132969D02*
X0010106Y0133736D01*
X0007804Y0133736D01*
X0007804Y0130667D01*
X0006269Y0130667D02*
X0003967Y0130667D01*
X0003200Y0131434D01*
X0003200Y0132969D01*
X0003967Y0133736D01*
X0006269Y0133736D01*
X0006269Y0129899D01*
X0005502Y0129132D01*
X0004735Y0129132D01*
D11*
X0014100Y0037667D02*
X0019100Y0037667D01*
X0021600Y0040167D01*
X0024100Y0037667D01*
X0029100Y0037667D01*
X0031600Y0040167D01*
X0034100Y0037667D01*
X0039100Y0037667D01*
X0041600Y0040167D01*
X0041600Y0045167D01*
X0039100Y0047667D01*
X0034100Y0047667D01*
X0031600Y0045167D01*
X0029100Y0047667D01*
X0024100Y0047667D01*
X0021600Y0045167D01*
X0019100Y0047667D01*
X0014100Y0047667D01*
X0011600Y0045167D01*
X0011600Y0040167D01*
X0014100Y0037667D01*
X0014100Y0057667D02*
X0019100Y0057667D01*
X0021600Y0060167D01*
X0024100Y0057667D01*
X0029100Y0057667D01*
X0031600Y0060167D01*
X0034100Y0057667D01*
X0039100Y0057667D01*
X0041600Y0060167D01*
X0041600Y0065167D01*
X0039100Y0067667D01*
X0034100Y0067667D01*
X0031600Y0065167D01*
X0029100Y0067667D01*
X0024100Y0067667D01*
X0021600Y0065167D01*
X0019100Y0067667D01*
X0014100Y0067667D01*
X0011600Y0065167D01*
X0011600Y0060167D01*
X0014100Y0057667D01*
X0014100Y0077667D02*
X0019100Y0077667D01*
X0021600Y0080167D01*
X0024100Y0077667D01*
X0029100Y0077667D01*
X0031600Y0080167D01*
X0034100Y0077667D01*
X0039100Y0077667D01*
X0041600Y0080167D01*
X0041600Y0085167D01*
X0039100Y0087667D01*
X0034100Y0087667D01*
X0031600Y0085167D01*
X0029100Y0087667D01*
X0024100Y0087667D01*
X0021600Y0085167D01*
X0019100Y0087667D01*
X0014100Y0087667D01*
X0011600Y0085167D01*
X0011600Y0080167D01*
X0014100Y0077667D01*
X0014100Y0097667D02*
X0019100Y0097667D01*
X0021600Y0100167D01*
X0024100Y0097667D01*
X0029100Y0097667D01*
X0031600Y0100167D01*
X0034100Y0097667D01*
X0039100Y0097667D01*
X0041600Y0100167D01*
X0041600Y0105167D01*
X0039100Y0107667D01*
X0034100Y0107667D01*
X0031600Y0105167D01*
X0029100Y0107667D01*
X0024100Y0107667D01*
X0021600Y0105167D01*
X0019100Y0107667D01*
X0014100Y0107667D01*
X0011600Y0105167D01*
X0011600Y0100167D01*
X0014100Y0097667D01*
X0014100Y0117667D02*
X0019100Y0117667D01*
X0021600Y0120167D01*
X0024100Y0117667D01*
X0029100Y0117667D01*
X0031600Y0120167D01*
X0034100Y0117667D01*
X0039100Y0117667D01*
X0041600Y0120167D01*
X0041600Y0125167D01*
X0039100Y0127667D01*
X0034100Y0127667D01*
X0031600Y0125167D01*
X0029100Y0127667D01*
X0024100Y0127667D01*
X0021600Y0125167D01*
X0019100Y0127667D01*
X0014100Y0127667D01*
X0011600Y0125167D01*
X0011600Y0120167D01*
X0014100Y0117667D01*
D12*
X0009853Y0120417D02*
X0006850Y0120417D01*
X0008351Y0120417D02*
X0008351Y0124920D01*
X0006850Y0123419D01*
X0008351Y0104920D02*
X0006850Y0103419D01*
X0008351Y0104920D02*
X0008351Y0100417D01*
X0006850Y0100417D02*
X0009853Y0100417D01*
X0008351Y0084920D02*
X0008351Y0080417D01*
X0006850Y0080417D02*
X0009853Y0080417D01*
X0006850Y0083419D02*
X0008351Y0084920D01*
X0008351Y0064920D02*
X0008351Y0060417D01*
X0006850Y0060417D02*
X0009853Y0060417D01*
X0006850Y0063419D02*
X0008351Y0064920D01*
X0008351Y0044920D02*
X0008351Y0040417D01*
X0006850Y0040417D02*
X0009853Y0040417D01*
X0006850Y0043419D02*
X0008351Y0044920D01*
X0061600Y0037667D02*
X0061600Y0132667D01*
X0131600Y0132667D01*
X0131600Y0037667D01*
X0061600Y0037667D01*
D13*
X0114208Y0011299D03*
M02*
