G75*
%MOIN*%
%OFA0B0*%
%FSLAX25Y25*%
%IPPOS*%
%LPD*%
%AMOC8*
5,1,8,0,0,1.08239X$1,22.5*
%
%ADD10C,0.00600*%
%ADD11C,0.00500*%
D10*
X0071600Y0025167D02*
X0074100Y0022667D01*
X0079100Y0022667D01*
X0081600Y0025167D01*
X0084100Y0022667D01*
X0089100Y0022667D01*
X0091600Y0025167D01*
X0094100Y0022667D01*
X0099100Y0022667D01*
X0101600Y0025167D01*
X0104100Y0022667D01*
X0109100Y0022667D01*
X0111600Y0025167D01*
X0114100Y0022667D01*
X0119100Y0022667D01*
X0121600Y0025167D01*
X0121600Y0030167D01*
X0119100Y0032667D01*
X0114100Y0032667D01*
X0111600Y0030167D01*
X0109100Y0032667D01*
X0104100Y0032667D01*
X0101600Y0030167D01*
X0099100Y0032667D01*
X0094100Y0032667D01*
X0091600Y0030167D01*
X0089100Y0032667D01*
X0084100Y0032667D01*
X0081600Y0030167D01*
X0079100Y0032667D01*
X0074100Y0032667D01*
X0071600Y0030167D01*
X0071600Y0025167D01*
X0156600Y0040167D02*
X0156600Y0045167D01*
X0159100Y0047667D01*
X0164100Y0047667D01*
X0166600Y0045167D01*
X0169100Y0047667D01*
X0174100Y0047667D01*
X0176600Y0045167D01*
X0179100Y0047667D01*
X0184100Y0047667D01*
X0186600Y0045167D01*
X0186600Y0040167D01*
X0184100Y0037667D01*
X0179100Y0037667D01*
X0176600Y0040167D01*
X0174100Y0037667D01*
X0169100Y0037667D01*
X0166600Y0040167D01*
X0164100Y0037667D01*
X0159100Y0037667D01*
X0156600Y0040167D01*
X0159100Y0057667D02*
X0164100Y0057667D01*
X0166600Y0060167D01*
X0169100Y0057667D01*
X0174100Y0057667D01*
X0176600Y0060167D01*
X0179100Y0057667D01*
X0184100Y0057667D01*
X0186600Y0060167D01*
X0186600Y0065167D01*
X0184100Y0067667D01*
X0179100Y0067667D01*
X0176600Y0065167D01*
X0174100Y0067667D01*
X0169100Y0067667D01*
X0166600Y0065167D01*
X0164100Y0067667D01*
X0159100Y0067667D01*
X0156600Y0065167D01*
X0156600Y0060167D01*
X0159100Y0057667D01*
X0159100Y0077667D02*
X0164100Y0077667D01*
X0166600Y0080167D01*
X0169100Y0077667D01*
X0174100Y0077667D01*
X0176600Y0080167D01*
X0179100Y0077667D01*
X0184100Y0077667D01*
X0186600Y0080167D01*
X0186600Y0085167D01*
X0184100Y0087667D01*
X0179100Y0087667D01*
X0176600Y0085167D01*
X0174100Y0087667D01*
X0169100Y0087667D01*
X0166600Y0085167D01*
X0164100Y0087667D01*
X0159100Y0087667D01*
X0156600Y0085167D01*
X0156600Y0080167D01*
X0159100Y0077667D01*
X0159100Y0097667D02*
X0164100Y0097667D01*
X0166600Y0100167D01*
X0169100Y0097667D01*
X0174100Y0097667D01*
X0176600Y0100167D01*
X0179100Y0097667D01*
X0184100Y0097667D01*
X0186600Y0100167D01*
X0186600Y0105167D01*
X0184100Y0107667D01*
X0179100Y0107667D01*
X0176600Y0105167D01*
X0174100Y0107667D01*
X0169100Y0107667D01*
X0166600Y0105167D01*
X0164100Y0107667D01*
X0159100Y0107667D01*
X0156600Y0105167D01*
X0156600Y0100167D01*
X0159100Y0097667D01*
X0159100Y0117667D02*
X0164100Y0117667D01*
X0166600Y0120167D01*
X0169100Y0117667D01*
X0174100Y0117667D01*
X0176600Y0120167D01*
X0179100Y0117667D01*
X0184100Y0117667D01*
X0186600Y0120167D01*
X0186600Y0125167D01*
X0184100Y0127667D01*
X0179100Y0127667D01*
X0176600Y0125167D01*
X0174100Y0127667D01*
X0169100Y0127667D01*
X0166600Y0125167D01*
X0164100Y0127667D01*
X0159100Y0127667D01*
X0156600Y0125167D01*
X0156600Y0120167D01*
X0159100Y0117667D01*
D11*
X0188347Y0120417D02*
X0191350Y0120417D01*
X0189849Y0120417D02*
X0189849Y0124920D01*
X0191350Y0123419D01*
X0189849Y0104920D02*
X0189849Y0100417D01*
X0191350Y0100417D02*
X0188347Y0100417D01*
X0191350Y0103419D02*
X0189849Y0104920D01*
X0189849Y0084920D02*
X0189849Y0080417D01*
X0191350Y0080417D02*
X0188347Y0080417D01*
X0191350Y0083419D02*
X0189849Y0084920D01*
X0189849Y0064920D02*
X0189849Y0060417D01*
X0191350Y0060417D02*
X0188347Y0060417D01*
X0191350Y0063419D02*
X0189849Y0064920D01*
X0189849Y0044920D02*
X0189849Y0040417D01*
X0191350Y0040417D02*
X0188347Y0040417D01*
X0191350Y0043419D02*
X0189849Y0044920D01*
X0118850Y0019419D02*
X0117349Y0020920D01*
X0117349Y0016417D01*
X0118850Y0016417D02*
X0115847Y0016417D01*
X0078850Y0035167D02*
X0078099Y0034417D01*
X0076598Y0034417D01*
X0075847Y0035167D01*
X0075847Y0036669D01*
X0076598Y0037419D01*
X0077349Y0037419D01*
X0078850Y0036669D01*
X0078850Y0038920D01*
X0075847Y0038920D01*
M02*
